<svg id="Layer_1" data-name="Layer 1" xmlns="http://www.w3.org/2000/svg" viewBox="0 0 14.59 14.91">
    <defs>
        <style>.cls-1{fill:#2767d2;}</style>
    </defs>
    <title>2</title>
    <path class="cls-1"
          d="M4.89,2V1A1,1,0,0,1,5.55.13a1.55,1.55,0,0,1,.29,0H8.91a.93.93,0,0,1,.93.74,1.49,1.49,0,0,1,0,.21V2h4a.61.61,0,0,1,.51.25.52.52,0,0,1,.12.34V7.19a.21.21,0,0,1-.09.18,1,1,0,0,1-.53.18H.88a.93.93,0,0,1-.53-.17.21.21,0,0,1-.12-.2c0-1.54,0-3.07,0-4.6A.59.59,0,0,1,.54,2,.61.61,0,0,1,.86,2h4ZM9.24,2v-.9A.32.32,0,0,0,8.9.71H5.85a.32.32,0,0,0-.34.35V2ZM8,6.3a.62.62,0,0,0-.62-.62.63.63,0,0,0-.63.62A.63.63,0,0,0,8,6.3Z"
          transform="translate(-0.23 -0.09)"/>
    <path class="cls-1"
          d="M14.52,7.94v2.57c0,.05,0,.07.05.08l.25.14s0,0,0,0c-.14.3-.29.61-.44.91a.09.09,0,0,0,0,.1c.15.3.29.6.44.91a.08.08,0,0,1,0,.05l-.39.2-.55.3a.13.13,0,0,0-.06.07c-.05.34-.11.68-.17,1,0,0,0,0,0,0l-.37-.05-.71-.1s-.05,0-.06,0l-.73.7,0,.05-.25-.24L11,14.25a.08.08,0,0,0-.08,0l-1.06.15a1.55,1.55,0,0,1,0-.21l-.15-.86s0-.05,0-.06l-.91-.48,0,0,.11-.23H.87a.62.62,0,0,1-.55-.29.59.59,0,0,1-.08-.32v-4l0,0a.9.9,0,0,0,.54.2h13A1,1,0,0,0,14.5,8Zm-2.8,6.24,0,0,.53-.51a.11.11,0,0,1,.07,0l.58.08.21,0c0-.27.1-.53.14-.79a.1.1,0,0,1,.05-.06l.44-.23.26-.14-.35-.71a.11.11,0,0,1,0-.08l.23-.46L14,11c-.22-.12-.43-.24-.65-.34-.06,0-.11-.07-.11-.16s0-.06,0-.09l-.11-.63h0l-.76.11-.06,0-.39-.38-.19-.18,0,0-.53.52-.05,0-.49-.07-.32,0a0,0,0,0,1,0,0c0,.25-.08.5-.13.75a.08.08,0,0,1,0,.07l-.23.11L9.41,11l0,0c.1.22.21.45.32.67a.06.06,0,0,1,0,.08l-.27.56a1.09,1.09,0,0,1-.08.15l0,0,.66.34s0,0,0,.06,0,.25.07.37,0,.28.07.42h0l.74-.11a.12.12,0,0,1,.1,0Z"
          transform="translate(-0.23 -0.09)"/>
</svg>
