<svg id="Layer_1" data-name="Layer 1" xmlns="http://www.w3.org/2000/svg" viewBox="0 0 15 15">
    <defs>
        <style>.cls-1{fill:#2767d2;}</style>
    </defs>
    <title>1</title>
    <path class="cls-1"
          d="M7.16,0h.76c.26,0,.52,0,.78.09a7.32,7.32,0,0,1,3.49,1.55A7.48,7.48,0,0,1,14.85,9a7.25,7.25,0,0,1-2.73,4.43A7.28,7.28,0,0,1,6.86,15a6.84,6.84,0,0,1-2.1-.49A7.51,7.51,0,0,1,0,8.31C0,8.15,0,8,0,7.84V7.16s0-.06,0-.09A6.61,6.61,0,0,1,.19,5.82a7.44,7.44,0,0,1,3.88-5A7.1,7.1,0,0,1,6.7,0ZM.88,7.5A6.62,6.62,0,1,0,7.52.88,6.62,6.62,0,0,0,.88,7.5Z"/>
    <path class="cls-1"
          d="M9.37,8a1.86,1.86,0,0,0-1.14,3.36h-4s-.09,0-.09-.08a5.29,5.29,0,0,1,.69-2.83A3.24,3.24,0,0,1,6.19,7.14a2.35,2.35,0,0,1,2.53.25A3,3,0,0,1,9.37,8Z"/>
    <path class="cls-1"
          d="M7.27,3.37A1.58,1.58,0,0,1,8.84,4.72a1.54,1.54,0,0,1-1,1.64A1.58,1.58,0,0,1,5.73,5.24,1.53,1.53,0,0,1,6.92,3.42,2,2,0,0,1,7.27,3.37Z"/>
    <path class="cls-1"
          d="M9.38,8.38a1.5,1.5,0,1,1,0,3,1.5,1.5,0,0,1,0-3ZM9.2,10.13l0,0a3.83,3.83,0,0,0-.28-.29c-.1-.1-.21-.08-.32,0a.19.19,0,0,0,0,.28l.46.45a.19.19,0,0,0,.29,0l.84-.83a.1.1,0,0,0,0-.09,1.82,1.82,0,0,0-.07-.25c0-.12-.08-.13-.18-.05l0,0Z"/>
</svg>
