<svg id="Layer_1" data-name="Layer 1" xmlns="http://www.w3.org/2000/svg" viewBox="0 0 15 13.26">
    <defs>
        <style>.cls-1{fill:#2767d2;}</style>
    </defs>
    <title>3</title>
    <path class="cls-1"
          d="M2.08,1.76v-.6c0-.22.07-.29.28-.29h.81c.19,0,.26.08.26.26v.63H6V1.17c0-.24.05-.29.29-.3h.77c.21,0,.28.07.28.28v.61H10V1.18c0-.25.06-.31.31-.31H11c.19,0,.26.07.26.27v.63h1.78c.25,0,.31.06.31.31,0,1.85,0,3.69,0,5.54a.32.32,0,0,0,.15.29A3.28,3.28,0,0,1,15,11.2a3.18,3.18,0,0,1-2.28,2.73,3.24,3.24,0,0,1-3.48-.81.57.57,0,0,0-.44-.18H.34c-.29,0-.34,0-.34-.34V2.08c0-.25.06-.31.3-.31H2.08ZM.42,12.52H8.69A3.33,3.33,0,0,1,9,8.6a3.34,3.34,0,0,1,4-1V4H.42Zm3-10.32v.6c0,.22-.06.28-.28.28H2.39c-.25,0-.3-.05-.31-.3V2.2H.42V3.6H13V2.2H11.29v.57c0,.26,0,.31-.3.31h-.74C10,3.08,10,3,10,2.79V2.2H7.36v.63c0,.18-.07.25-.26.25H6.29C6.08,3.08,6,3,6,2.8V2.2ZM11.6,7.73a3,3,0,1,0,3,3A3,3,0,0,0,11.6,7.73Zm-.73-5.07V1.3h-.5V2.66ZM3,2.66V1.3H2.5V2.66Zm3.94,0V1.3h-.5V2.66Z"
          transform="translate(0 -0.87)"/>
    <path class="cls-1"
          d="M4.34,6.72c-.18,0-.37,0-.55,0s-.25-.07-.25-.24V5.36c0-.17.08-.24.25-.24h1.1c.18,0,.25.08.25.26q0,.54,0,1.08c0,.19-.07.26-.25.26S4.52,6.72,4.34,6.72Zm.38-1.18H4V6.3h.76Z"
          transform="translate(0 -0.87)"/>
    <path class="cls-1"
          d="M8.23,5.91V5.38c0-.19.08-.26.26-.26H9.57c.18,0,.26.08.27.26V6.49a.22.22,0,0,1-.24.23c-.38,0-.75,0-1.13,0-.16,0-.23-.08-.24-.24Zm.43.39h.76V5.55H8.66Z"
          transform="translate(0 -0.87)"/>
    <path class="cls-1"
          d="M12.19,5.94v.54c0,.16-.07.24-.24.24-.38,0-.75,0-1.13,0-.17,0-.24-.08-.24-.24V5.39c0-.19.09-.27.28-.27h1.07c.18,0,.25.07.26.26ZM11,6.3h.75V5.54H11Z"
          transform="translate(0 -0.87)"/>
    <path class="cls-1"
          d="M1.19,5.92V5.37c0-.17.07-.25.24-.25H2.55a.21.21,0,0,1,.24.24V6.48c0,.17-.07.24-.23.24q-.57,0-1.14,0c-.16,0-.23-.08-.23-.25Zm.42-.38V6.3h.75V5.54Z"
          transform="translate(0 -0.87)"/>
    <path class="cls-1"
          d="M7.49,5.93v.54c0,.17-.07.25-.24.25-.38,0-.76,0-1.13,0a.21.21,0,0,1-.23-.23c0-.38,0-.75,0-1.13,0-.17.07-.24.24-.24H7.24a.22.22,0,0,1,.25.25ZM6.31,6.3h.76V5.54H6.31Z"
          transform="translate(0 -0.87)"/>
    <path class="cls-1"
          d="M4.33,9H3.79c-.17,0-.25-.07-.25-.24V7.64c0-.17.07-.24.24-.24H4.9c.17,0,.24.08.24.25,0,.37,0,.74,0,1.1,0,.18-.07.25-.25.25Zm.39-.42V7.83H4v.75Z"
          transform="translate(0 -0.87)"/>
    <path class="cls-1"
          d="M3.54,10.48V9.93c0-.18.07-.25.25-.25H4.9c.18,0,.24.06.24.24,0,.37,0,.74,0,1.1,0,.17-.07.25-.24.25H3.78c-.17,0-.24-.07-.24-.24S3.54,10.66,3.54,10.48Zm.42.38h.76V10.1H4Z"
          transform="translate(0 -0.87)"/>
    <path class="cls-1"
          d="M1.19,10.48V9.91c0-.16.07-.23.23-.23H2.56c.16,0,.23.07.23.24V11c0,.17-.07.24-.24.24H1.43c-.17,0-.24-.07-.24-.25Zm.41-.38c0,.24,0,.46,0,.68,0,0,.06.08.1.08h.56s.1,0,.1-.07c0-.23,0-.46,0-.7Z"
          transform="translate(0 -0.87)"/>
    <path class="cls-1"
          d="M1.19,8.2V7.65c0-.18.07-.24.23-.25H2.56c.16,0,.23.07.23.24V8.76c0,.17-.07.24-.24.24H1.43c-.17,0-.24-.08-.24-.25Zm1.18-.38H1.62v.75h.75Z"
          transform="translate(0 -0.87)"/>
    <path class="cls-1"
          d="M6.67,11.28H6.12c-.16,0-.23-.07-.23-.24,0-.37,0-.75,0-1.12,0-.17.07-.24.25-.24h1.1c.18,0,.25.07.25.26V11c0,.19-.07.26-.27.26ZM6.3,10.1v.69s0,.07.06.07h.7V10.1Z"
          transform="translate(0 -0.87)"/>
    <path class="cls-1"
          d="M7.49,8.22v.53c0,.18-.07.25-.25.25H6.14c-.18,0-.25-.07-.25-.26,0-.36,0-.73,0-1.1,0-.17.07-.24.23-.24H7.26a.21.21,0,0,1,.23.23Zm-.42-.41H6.38s-.08,0-.08.07v.69h.77Z"
          transform="translate(0 -0.87)"/>
    <path class="cls-1"
          d="M14.26,10.73a2.67,2.67,0,0,1-5.34,0A2.69,2.69,0,0,1,11.6,8,2.66,2.66,0,0,1,14.26,10.73ZM11.6,13a2.26,2.26,0,1,0-2.26-2.25A2.26,2.26,0,0,0,11.6,13Z"
          transform="translate(0 -0.87)"/>
    <path class="cls-1"
          d="M11.39,9.54V9.4c0-.12.08-.19.2-.19a.18.18,0,0,1,.21.18c0,.14.07.17.17.22a1.07,1.07,0,0,1,.34.25.19.19,0,0,1,0,.3.22.22,0,0,1-.3-.08.55.55,0,0,0-.7-.16c-.06,0-.14.13-.14.19a.29.29,0,0,0,.14.21,1.47,1.47,0,0,0,.37.13l.39.11a.62.62,0,0,1,.45.67.64.64,0,0,1-.49.61c-.12,0-.2.06-.2.21s-.08.17-.19.17-.21-.07-.2-.19-.06-.16-.17-.18a.68.68,0,0,1-.49-.41c-.06-.12-.05-.23.08-.29a.19.19,0,0,1,.28.11.58.58,0,0,0,.78.24.33.33,0,0,0,.2-.31c0-.14-.11-.21-.23-.25l-.71-.22a.58.58,0,0,1-.4-.62.58.58,0,0,1,.4-.49A1.26,1.26,0,0,1,11.39,9.54Z"
          transform="translate(0 -0.87)"/>
</svg>
